<svg width="22" height="29" viewBox="0 0 22 29" fill="none" xmlns="http://www.w3.org/2000/svg">
<g id="Layer_1" clip-path="url(#clip0_7480_1128)">
<path id="Vector" d="M18.9972 12.1962C21.0298 17.4629 21.7688 25.5264 16.2809 25.5264C10.793 25.5264 5.26829 19.8608 3.32114 13.7161C1.46112 7.85116 2.26713 1.78516 7.75501 1.78516C13.2429 1.78516 16.7803 6.45698 18.9972 12.1962Z" fill="white"/>
<path id="Vector_2" d="M11.5103 25.5984C8.98003 24.2009 6.61227 21.6605 4.84442 18.4466C3.07656 15.2326 2.11807 11.727 2.14823 8.57674C2.17839 5.42811 3.19219 3.01009 5.00193 1.77176C6.81168 0.53342 9.20289 0.620556 11.7332 2.01641C14.2635 3.41393 16.6312 5.95428 18.3991 9.16826C20.1669 12.3839 21.1254 15.8878 21.0953 19.0381C21.0651 22.1884 20.0513 24.6047 18.2416 25.8431C16.4318 27.0814 14.0406 26.9943 11.5103 25.5984ZM11.7181 3.47761C9.50117 2.25435 7.40655 2.17727 5.82135 3.26312C4.23447 4.34897 3.34803 6.46537 3.32122 9.22523C3.2944 11.9851 4.13393 15.055 5.68394 17.8718C7.23395 20.6886 9.30679 22.914 11.5237 24.1372C13.7407 25.3605 15.8353 25.4375 17.4205 24.3517C19.0074 23.2659 19.8938 21.1495 19.9206 18.3896C19.9474 15.6297 19.1079 12.5599 17.5579 9.74302C16.0079 6.92618 13.935 4.70086 11.7181 3.47761Z" fill="black"/>
<path id="Vector_3" d="M15.79 12.8187C16.9579 15.8433 17.3819 20.4749 14.2299 20.4749C11.0779 20.4749 7.90582 17.2207 6.78646 13.6917C5.71905 10.3236 6.18154 6.83984 9.33351 6.83984C12.4855 6.83984 14.5181 9.52263 15.79 12.8204V12.8187Z" fill="#9E9E9E"/>
<path id="Vector_4" d="M17.2278 13.9658C19.2604 19.2325 19.9994 27.2959 14.5115 27.2959C9.02362 27.2959 3.49887 21.6304 1.55172 15.4856C-0.308302 9.62069 0.497706 3.55469 5.98559 3.55469C11.4735 3.55469 15.0109 8.22651 17.2278 13.9658Z" fill="white"/>
<path id="Vector_5" d="M9.73922 27.3679C7.20892 25.9704 4.84117 23.4301 3.07332 20.2161C1.30546 17.0004 0.348642 13.4966 0.377129 10.3463C0.407291 7.19765 1.42108 4.77962 3.23083 3.54129C5.04058 2.30295 7.43179 2.39009 9.96208 3.78594C12.4924 5.18346 14.8601 7.72381 16.628 10.9378C18.3958 14.1534 19.3543 17.6573 19.3242 20.8076C19.294 23.9579 18.2802 26.3743 16.4705 27.6126C14.6607 28.8509 12.2695 28.7638 9.73922 27.3679ZM9.94868 5.24714C7.73174 4.02389 5.63712 3.9468 4.05192 5.03265C2.46504 6.1185 1.5786 8.2349 1.55179 10.9948C1.52498 13.7546 2.3645 16.8245 3.91451 19.6413C5.46453 22.4582 7.53736 24.6835 9.7543 25.9067C11.9712 27.13 14.0659 27.2071 15.6511 26.1212C17.2379 25.0354 18.1244 22.919 18.1512 20.1591C18.178 17.3993 17.3385 14.3294 15.7885 11.5126C14.2384 8.69571 12.1656 6.4704 9.94868 5.24714Z" fill="black"/>
<path id="Vector_6" d="M14.0205 14.5873C15.1885 17.6119 15.6124 22.2435 12.4605 22.2435C9.30848 22.2435 6.1364 18.9893 5.01704 15.4603C3.94962 12.0922 4.41211 8.6084 7.56409 8.6084C10.7161 8.6084 12.7487 11.2912 14.0205 14.5889V14.5873Z" fill="#9E9E9E"/>
</g>
<defs>
<clipPath id="clip0_7480_1128">
<rect width="20.7182" height="27.5819" fill="white" transform="translate(0.377197 0.902344)"/>
</clipPath>
</defs>
</svg>
