<svg width="20" height="20" viewBox="0 0 20 20" fill="none" xmlns="http://www.w3.org/2000/svg">
<rect width="20" height="20" rx="10" fill="#FFFF00"/>
<path d="M4.98578 7.63937C4.40107 8.32949 3.96567 9.13325 3.70703 10C4.51453 12.7112 7.02578 14.6875 9.99828 14.6875C10.6189 14.6875 11.2189 14.6012 11.7877 14.4406M6.39078 6.3925C7.46119 5.68616 8.71583 5.31055 9.99828 5.3125C12.9708 5.3125 15.4814 7.28875 16.2889 9.99875C15.8464 11.4796 14.8964 12.7572 13.6058 13.6075M6.39078 6.3925L4.37328 4.375M6.39078 6.3925L8.67203 8.67375M13.6058 13.6075L15.6233 15.625M13.6058 13.6075L11.3245 11.3262C11.4987 11.1521 11.6368 10.9454 11.731 10.7179C11.8253 10.4904 11.8738 10.2466 11.8738 10.0003C11.8738 9.75406 11.8253 9.51022 11.731 9.28272C11.6368 9.05522 11.4987 8.8485 11.3245 8.67437C11.1504 8.50025 10.9437 8.36213 10.7162 8.26789C10.4887 8.17366 10.2448 8.12515 9.99859 8.12515C9.75234 8.12515 9.50851 8.17366 9.281 8.26789C9.0535 8.36213 8.84678 8.50025 8.67266 8.67437M11.3239 11.3256L8.67328 8.675" stroke="black" stroke-width="0.9375" stroke-linecap="round" stroke-linejoin="round"/>
</svg>
