<svg width="256" height="256" viewBox="0 0 256 256" fill="none" xmlns="http://www.w3.org/2000/svg">
<path d="M127.989 126C126.895 126 126 126.895 126 127.989C126 129.083 126.895 129.978 127.989 129.978C129.083 129.978 129.978 129.083 129.978 127.989C129.978 126.895 129.083 126 127.989 126Z" fill="black"/>
<path d="M127.989 212C126.895 212 126 212.895 126 213.989C126 215.083 126.895 215.978 127.989 215.978C129.083 215.978 129.978 215.083 129.978 213.989C129.978 212.895 129.083 212 127.989 212Z" fill="black"/>
<path d="M41.9891 126C40.8951 126 40 126.895 40 127.989C40 129.083 40.8951 129.978 41.9891 129.978C43.0831 129.978 43.9782 129.083 43.9782 127.989C43.9782 126.895 43.0831 126 41.9891 126Z" fill="black"/>
<path d="M41.9891 212C40.8951 212 40 212.895 40 213.989C40 215.083 40.8951 215.978 41.9891 215.978C43.0831 215.978 43.9782 215.083 43.9782 213.989C43.9782 212.895 43.0831 212 41.9891 212Z" fill="black"/>
<path d="M41.9891 38C40.8951 38 40 38.8951 40 39.9891C40 41.0831 40.8951 41.9782 41.9891 41.9782C43.0831 41.9782 43.9782 41.0831 43.9782 39.9891C43.9782 38.8951 43.0831 38 41.9891 38Z" fill="black"/>
<path d="M127.989 38C126.895 38 126 38.8951 126 39.9891C126 41.0831 126.895 41.9782 127.989 41.9782C129.083 41.9782 129.978 41.0831 129.978 39.9891C129.978 38.8951 129.083 38 127.989 38Z" fill="black"/>
<path d="M213.989 38C212.895 38 212 38.8951 212 39.9891C212 41.0831 212.895 41.9782 213.989 41.9782C215.083 41.9782 215.978 41.0831 215.978 39.9891C215.978 38.8951 215.083 38 213.989 38Z" fill="black"/>
<path d="M213.989 126C212.895 126 212 126.895 212 127.989C212 129.083 212.895 129.978 213.989 129.978C215.083 129.978 215.978 129.083 215.978 127.989C215.978 126.895 215.083 126 213.989 126Z" fill="black"/>
<path d="M213.989 212C212.895 212 212 212.895 212 213.989C212 215.083 212.895 215.978 213.989 215.978C215.083 215.978 215.978 215.083 215.978 213.989C215.978 212.895 215.083 212 213.989 212Z" fill="black"/>
</svg>
