<svg width="173" height="129" viewBox="0 0 173 129" fill="none" xmlns="http://www.w3.org/2000/svg">
<g clip-path="url(#clip0_10526_4354)">
<path d="M129.181 62.4987C129.6 59.2111 127.263 54.3792 124.304 51.9518C120.792 49.0694 116.696 47.8997 112.017 48.0067C103.41 48.2017 96.4474 54.5359 96.3971 62.384C96.3593 68.8138 96.3719 75.2475 96.3971 81.6812C96.4139 86.1691 98.3149 89.9459 102.054 92.8244C109.469 98.528 122.563 97.3506 127.59 88.241C128.702 86.2264 129.281 84.1086 129.264 81.7385C127.254 81.7385 125.336 81.7691 123.423 81.7232C122.642 81.7041 122.382 81.9564 122.344 82.6369C122.26 84.101 121.656 85.4083 120.703 86.5781C119.029 88.6347 116.788 89.6478 113.989 89.9612C108.378 90.5958 103.414 87.1248 103.3 82.0482C103.154 75.366 103.254 68.6762 103.284 61.9903C103.292 60.3541 103.947 58.8518 105.034 57.5827C107.715 54.4404 111.362 53.7408 115.441 54.4939C119.037 55.1552 122.059 58.072 122.391 61.715C122.416 61.9864 122.735 62.4605 122.932 62.4643C125.018 62.5178 127.107 62.4987 129.181 62.4987ZM56.6851 78.8485C56.6054 78.9594 56.5718 78.9861 56.5718 79.0129C56.555 84.2653 56.5466 89.5178 56.5215 94.7702C56.5215 95.3092 56.8362 95.3895 57.323 95.3895C64.348 95.3475 71.373 95.4277 78.3939 95.2442C84.4915 95.0837 89.9134 90.1065 90.2869 84.5521C90.4338 82.3616 90.4254 80.1597 90.3792 77.9655C90.2995 74.1695 88.6838 71.0349 85.4357 68.5845C81.8183 65.855 77.5797 65.8092 73.1985 66.0538V72.1817C74.5498 72.1817 75.8046 72.1626 77.0552 72.1817C80.8824 72.2505 83.4843 74.6206 83.5304 78.084C83.5556 79.8348 83.564 81.5856 83.5304 83.3364C83.4549 86.7463 80.7943 89.1049 77.0426 89.1088C72.846 89.1164 68.6537 89.1088 64.4571 89.1088C64.1214 89.1088 63.7857 89.082 63.3534 89.0629V78.8409H56.6851V78.8485ZM82.88 65.4001H89.8588C89.6574 62.8427 89.8505 60.27 89.1916 57.8885C87.6179 52.1697 82.7415 48.9356 76.1109 48.8745C69.9252 48.8171 63.7395 48.8745 57.5538 48.8439C56.6977 48.8401 56.5005 49.1076 56.5047 49.834C56.5298 55.247 56.5214 60.66 56.5173 66.0691C56.5173 69.2038 57.5202 72.0135 59.8115 74.3874C63.3618 78.0649 67.9864 78.8141 73.0852 78.3669V72.2581C72.0193 72.2581 71.0415 72.2734 70.0679 72.2581C65.8965 72.1779 63.3828 69.8498 63.3744 66.0615C63.366 62.751 63.3744 59.4405 63.3744 56.13C63.3744 55.8242 63.408 55.5146 63.4332 55.1399H64.646C68.49 55.1399 72.3341 55.1399 76.1781 55.1399C80.1816 55.1399 82.8128 57.4871 82.8674 61.1301C82.8884 62.5254 82.8674 63.9246 82.8674 65.4078L82.88 65.4001ZM41.1873 48.9777V95.3513H47.8598V48.9777H41.1873Z" fill="white"/>
<path d="M129.184 62.4987C127.111 62.4987 125.021 62.5178 122.936 62.4643C122.743 62.4605 122.419 61.9864 122.394 61.715C122.063 58.072 119.041 55.1552 115.445 54.4939C111.366 53.7446 107.719 54.4404 105.037 57.5827C103.95 58.8518 103.296 60.3541 103.287 61.9903C103.258 68.6762 103.153 75.366 103.304 82.0482C103.417 87.1248 108.378 90.5958 113.993 89.9612C116.796 89.6439 119.037 88.6309 120.707 86.5781C121.66 85.4083 122.268 84.101 122.348 82.6369C122.386 81.9564 122.646 81.7041 123.427 81.7232C125.34 81.7729 127.258 81.7385 129.268 81.7385C129.285 84.1048 128.706 86.2264 127.594 88.241C122.566 97.3467 109.473 98.528 102.058 92.8245C98.3186 89.9498 96.4176 86.1729 96.4008 81.6812C96.3756 75.2475 96.363 68.8177 96.4008 62.384C96.4511 54.5359 103.417 48.1978 112.02 48.0067C116.699 47.8997 120.791 49.0694 124.308 51.9518C127.266 54.3792 129.608 59.2111 129.184 62.4987Z" fill="white"/>
<path d="M56.6844 78.8472H63.3527V89.0692C63.7808 89.0883 64.1165 89.1151 64.4564 89.1151C68.653 89.1151 72.8453 89.1227 77.0419 89.1151C80.7894 89.1113 83.4542 86.7488 83.5297 83.3428C83.5675 81.5919 83.5591 79.8411 83.5297 78.0903C83.4794 74.6269 80.8775 72.2606 77.0545 72.188C75.7997 72.1651 74.5449 72.188 73.1978 72.188V66.0602C77.579 65.8155 81.8176 65.8652 85.435 68.5908C88.6831 71.0412 90.2988 74.1758 90.3785 77.9718C90.4247 80.1661 90.4289 82.368 90.2862 84.5584C89.9169 90.1128 84.4949 95.09 78.3932 95.2506C71.3723 95.4341 64.3473 95.3538 57.3223 95.3959C56.8397 95.3959 56.5208 95.3156 56.5208 94.7766C56.5459 89.5241 56.5543 84.2717 56.5711 79.0192C56.5711 78.9925 56.6047 78.9657 56.6844 78.8549V78.8472Z" fill="white"/>
<path d="M82.8793 65.3999C82.8793 63.9167 82.8961 62.5176 82.8793 61.1223C82.8206 57.483 80.1935 55.1358 76.19 55.132C72.346 55.132 68.5019 55.132 64.6579 55.132H63.4451C63.4199 55.5105 63.3864 55.8163 63.3864 56.1221C63.3864 59.4326 63.378 62.7431 63.3864 66.0536C63.3947 69.8457 65.9127 72.1738 70.0799 72.2502C71.0535 72.2694 72.0271 72.2502 73.0972 72.2502V78.359C67.9984 78.8101 63.3738 78.057 59.8235 74.3795C57.5322 72.0056 56.5292 69.1959 56.5292 66.0612C56.5292 60.6482 56.5418 55.2352 56.5166 49.8261C56.5166 49.0997 56.7054 48.8322 57.5657 48.836C63.7515 48.8666 69.9372 48.8092 76.1229 48.8666C82.7534 48.9277 87.6256 52.1618 89.2035 57.8806C89.8582 60.2621 89.6693 62.8348 89.8708 65.3923H82.8919L82.8793 65.3999Z" fill="white"/>
<path d="M41.1875 48.9795H47.86V95.3531H41.1875V48.9795Z" fill="white"/>
</g>
<g clip-path="url(#clip1_10526_4354)">
<path d="M27.4453 16.5183C30.4044 24.1858 31.4803 35.9249 23.4908 35.9249C15.5012 35.9249 7.45803 27.6768 4.62327 18.7309C1.91537 10.1925 3.08879 1.36133 11.0783 1.36133C19.0678 1.36133 24.2177 8.16279 27.4453 16.5183Z" fill="white"/>
<path d="M16.5456 36.0299C12.8618 33.9953 9.41476 30.2969 6.84104 25.6179C4.26731 20.9388 2.87189 15.8353 2.9158 11.2489C2.95971 6.665 4.43564 3.14473 7.07035 1.3419C9.70507 -0.460925 13.1863 -0.334068 16.87 1.69808C20.5537 3.73266 24.0008 7.43102 26.5746 12.1101C29.1483 16.7916 30.5437 21.8927 30.4998 26.479C30.4559 31.0654 28.98 34.5832 26.3452 36.386C23.7105 38.1889 20.2293 38.062 16.5456 36.0299ZM16.8481 3.82536C13.6205 2.04449 10.5711 1.93227 8.26329 3.5131C5.95304 5.09393 4.66252 8.17508 4.62349 12.193C4.58445 16.211 5.80667 20.6802 8.06325 24.7811C10.3198 28.882 13.3376 32.1217 16.5651 33.9026C19.7926 35.6835 22.842 35.7957 25.1499 34.2148C27.4601 32.634 28.7506 29.5529 28.7897 25.5349C28.8287 21.517 27.6065 17.0477 25.3499 12.9468C23.0933 8.84596 20.0756 5.60624 16.8481 3.82536Z" fill="black"/>
<path d="M22.7758 17.425C24.4762 21.8284 25.0934 28.5713 20.5046 28.5713C15.9158 28.5713 11.2977 23.8337 9.6681 18.696C8.11411 13.7925 8.78743 8.7207 13.3762 8.7207C17.965 8.7207 20.9242 12.6264 22.7758 17.4275V17.425Z" fill="#9E9E9E"/>
<path d="M24.8696 19.0944C27.8288 26.7619 28.9046 38.501 20.9151 38.501C12.9255 38.501 4.88234 30.2529 2.04759 21.3071C-0.660314 12.7687 0.51311 3.9375 8.50264 3.9375C16.4922 3.9375 21.6421 10.739 24.8696 19.0944Z" fill="white"/>
<path d="M13.9671 38.606C10.2834 36.5715 6.83629 32.8731 4.26256 28.194C1.68884 23.5125 0.295853 18.4114 0.337326 13.8251C0.381238 9.24117 1.85717 5.7209 4.49188 3.91807C7.12659 2.11525 10.6078 2.2421 14.2916 4.27425C17.9753 6.30883 21.4224 10.0072 23.9961 14.6862C26.5698 19.3677 27.9652 24.4688 27.9213 29.0552C27.8774 33.6416 26.4015 37.1594 23.7668 38.9622C21.1321 40.765 17.6508 40.6382 13.9671 38.606ZM14.272 6.40154C11.0445 4.62066 7.99507 4.50845 5.68726 6.08927C3.37701 7.6701 2.08648 10.7513 2.04745 14.7692C2.00842 18.7871 3.23063 23.2564 5.48722 27.3573C7.7438 31.4582 10.7615 34.6979 13.989 36.4788C17.2166 38.2596 20.266 38.3718 22.5738 36.791C24.8841 35.2102 26.1746 32.129 26.2136 28.1111C26.2527 24.0932 25.0305 19.6239 22.7739 15.523C20.5173 11.4221 17.4996 8.18241 14.272 6.40154Z" fill="black"/>
<path d="M20.2001 19.9992C21.9005 24.4026 22.5177 31.1455 17.9289 31.1455C13.3401 31.1455 8.72204 26.4079 7.09242 21.2702C5.53843 16.3667 6.21174 11.2949 10.8005 11.2949C15.3893 11.2949 18.3485 15.2006 20.2001 20.0017V19.9992Z" fill="#9E9E9E"/>
</g>
<g clip-path="url(#clip2_10526_4354)">
<path d="M170.44 101.928C172.719 107.833 173.547 116.874 167.394 116.874C161.241 116.874 155.047 110.522 152.864 103.632C150.779 97.0568 151.682 90.2559 157.835 90.2559C163.988 90.2559 167.954 95.4937 170.44 101.928Z" fill="white"/>
<path d="M162.046 116.954C159.209 115.387 156.554 112.539 154.572 108.936C152.59 105.332 151.515 101.402 151.549 97.8699C151.583 94.3398 152.72 91.6288 154.749 90.2404C156.778 88.852 159.459 88.9497 162.295 90.5147C165.132 92.0815 167.787 94.9297 169.769 98.5331C171.751 102.138 172.826 106.067 172.792 109.599C172.758 113.131 171.621 115.84 169.592 117.228C167.563 118.617 164.882 118.519 162.046 116.954ZM162.279 92.1529C159.793 90.7815 157.445 90.695 155.667 91.9124C153.888 93.1299 152.894 95.5027 152.864 98.597C152.834 101.691 153.775 105.133 155.513 108.291C157.251 111.449 159.575 113.944 162.061 115.316C164.546 116.687 166.895 116.774 168.672 115.556C170.451 114.339 171.445 111.966 171.475 108.872C171.505 105.777 170.564 102.336 168.826 99.1775C167.088 96.0193 164.764 93.5244 162.279 92.1529Z" fill="black"/>
<path d="M166.844 102.626C168.153 106.017 168.628 111.21 165.094 111.21C161.561 111.21 158.004 107.562 156.749 103.605C155.552 99.8287 156.071 95.9229 159.605 95.9229C163.139 95.9229 165.418 98.9307 166.844 102.628V102.626Z" fill="#9E9E9E"/>
<path d="M168.456 103.912C170.735 109.817 171.563 118.857 165.411 118.857C159.258 118.857 153.064 112.505 150.88 105.616C148.795 99.0402 149.699 92.2393 155.852 92.2393C162.004 92.2393 165.97 97.4771 168.456 103.912Z" fill="white"/>
<path d="M160.06 118.938C157.223 117.371 154.568 114.523 152.586 110.92C150.604 107.315 149.531 103.386 149.563 99.8543C149.597 96.3241 150.734 93.6131 152.763 92.2248C154.792 90.8364 157.473 90.9341 160.31 92.499C163.147 94.0659 165.801 96.9141 167.783 100.517C169.765 104.123 170.84 108.051 170.806 111.583C170.772 115.115 169.636 117.824 167.607 119.213C165.578 120.601 162.897 120.503 160.06 118.938ZM160.295 94.1373C157.809 92.7658 155.461 92.6794 153.683 93.8968C151.904 95.1142 150.91 97.4871 150.88 100.581C150.85 103.676 151.792 107.117 153.529 110.276C155.267 113.434 157.591 115.929 160.077 117.3C162.562 118.672 164.911 118.758 166.688 117.541C168.467 116.323 169.461 113.95 169.491 110.856C169.521 107.762 168.58 104.32 166.842 101.162C165.104 98.0037 162.78 95.5088 160.295 94.1373Z" fill="black"/>
<path d="M164.86 104.609C166.169 108 166.645 113.192 163.111 113.192C159.577 113.192 156.021 109.544 154.766 105.587C153.569 101.811 154.087 97.9053 157.621 97.9053C161.155 97.9053 163.434 100.913 164.86 104.61V104.609Z" fill="#9E9E9E"/>
</g>
<g clip-path="url(#clip3_10526_4354)">
<path d="M102.96 23.3083C101.263 27.7039 100.646 34.4337 105.227 34.4337C109.807 34.4337 114.418 29.7052 116.043 24.5768C117.595 19.6819 116.923 14.6191 112.342 14.6191C107.762 14.6191 104.81 18.5183 102.96 23.3083Z" fill="white"/>
<path d="M109.208 34.4933C111.32 33.3269 113.296 31.2067 114.772 28.5243C116.247 25.8419 117.047 22.9162 117.022 20.2869C116.997 17.6591 116.151 15.641 114.64 14.6075C113.13 13.5739 111.134 13.6467 109.022 14.8116C106.91 15.978 104.934 18.0982 103.459 20.7806C101.983 23.4644 101.183 26.3888 101.209 29.018C101.234 31.6473 102.08 33.664 103.59 34.6975C105.101 35.731 107.096 35.6583 109.208 34.4933ZM109.035 16.0312C110.885 15.0102 112.633 14.9459 113.956 15.8522C115.281 16.7584 116.021 18.5248 116.043 20.8282C116.065 23.1316 115.365 25.6937 114.071 28.0446C112.777 30.3956 111.047 32.2528 109.197 33.2738C107.347 34.2947 105.599 34.359 104.276 33.4528C102.951 32.5465 102.211 30.7802 102.189 28.4768C102.167 26.1734 102.867 23.6113 104.161 21.2603C105.455 18.9094 107.185 17.0521 109.035 16.0312Z" fill="black"/>
<path d="M105.637 23.8269C104.662 26.3513 104.308 30.2168 106.939 30.2168C109.569 30.2168 112.217 27.5009 113.151 24.5555C114.042 21.7445 113.656 18.8369 111.025 18.8369C108.395 18.8369 106.698 21.076 105.637 23.8283V23.8269Z" fill="#9E9E9E"/>
<path d="M104.436 24.7848C102.74 29.1804 102.123 35.9102 106.703 35.9102C111.284 35.9102 115.894 31.1818 117.52 26.0533C119.072 21.1584 118.399 16.0957 113.819 16.0957C109.239 16.0957 106.287 19.9948 104.436 24.7848Z" fill="white"/>
<path d="M110.687 35.9699C112.798 34.8035 114.775 32.6833 116.25 30.0009C117.725 27.3171 118.524 24.3927 118.5 21.7635C118.475 19.1356 117.629 17.1175 116.119 16.084C114.608 15.0505 112.612 15.1232 110.501 16.2882C108.389 17.4546 106.413 19.5748 104.937 22.2572C103.462 24.941 102.662 27.8653 102.687 30.4946C102.712 33.1238 103.558 35.1405 105.069 36.174C106.579 37.2076 108.575 37.1348 110.687 35.9699ZM110.512 17.5077C112.362 16.4868 114.11 16.4225 115.433 17.3287C116.758 18.235 117.497 20.0013 117.52 22.3047C117.542 24.6081 116.842 27.1702 115.548 29.5212C114.254 31.8721 112.524 33.7294 110.674 34.7503C108.824 35.7713 107.076 35.8356 105.753 34.9293C104.428 34.0231 103.688 32.2567 103.666 29.9533C103.644 27.6499 104.344 25.0878 105.638 22.7369C106.931 20.3859 108.661 18.5287 110.512 17.5077Z" fill="black"/>
<path d="M107.113 25.3035C106.138 27.8278 105.785 31.6934 108.415 31.6934C111.046 31.6934 113.693 28.9774 114.628 26.0321C115.518 23.221 115.132 20.3135 112.502 20.3135C109.871 20.3135 108.175 22.5525 107.113 25.3049V25.3035Z" fill="#9E9E9E"/>
</g>
<g clip-path="url(#clip4_10526_4354)">
<path d="M27.2696 120.152C30.2132 123.831 35.7171 127.752 38.0233 123.795C40.3295 119.838 38.5658 113.473 34.9531 109.487C31.5056 105.681 26.7927 103.713 24.4866 107.67C22.1804 111.628 24.0627 116.142 27.2696 120.152Z" fill="white"/>
<path d="M40.0799 120.385C40.1355 117.973 39.2986 115.199 37.724 112.573C36.1493 109.948 34.0243 107.783 31.7399 106.481C29.4568 105.18 27.2872 104.895 25.6337 105.679C23.9803 106.464 23.0382 108.225 22.9815 110.636C22.9259 113.048 23.7627 115.823 25.3374 118.448C26.9133 121.074 29.0371 123.238 31.3214 124.54C33.6057 125.842 35.7742 126.127 37.4276 125.342C39.0811 124.557 40.0231 122.796 40.0799 120.385ZM24.0415 111.239C24.091 109.127 24.9156 107.584 26.3648 106.897C27.8146 106.209 29.7133 106.459 31.7146 107.6C33.716 108.74 35.5769 110.636 36.9567 112.937C38.3366 115.238 39.0701 117.668 39.0206 119.781C38.9711 121.894 38.1464 123.436 36.6973 124.123C35.2474 124.811 33.3488 124.561 31.3474 123.421C29.346 122.28 27.4852 120.385 26.1053 118.083C24.7255 115.782 23.9919 113.352 24.0415 111.239Z" fill="black"/>
<path d="M29.0661 118.101C30.7563 120.215 33.918 122.467 35.2425 120.194C36.5671 117.921 35.5535 114.266 33.4792 111.976C31.499 109.791 28.7925 108.66 27.468 110.933C26.1434 113.206 27.2238 115.799 29.0673 118.102L29.0661 118.101Z" fill="#9E9E9E"/>
<path d="M29.2889 119.62C32.2325 123.299 37.7364 127.22 40.0426 123.263C42.3487 119.306 40.5851 112.941 36.9724 108.955C33.5249 105.149 28.812 103.181 26.5058 107.138C24.1997 111.095 26.082 115.609 29.2889 119.62Z" fill="white"/>
<path d="M42.1002 119.852C42.1558 117.44 41.3189 114.665 39.7443 112.04C38.1684 109.414 36.0439 107.251 33.7602 105.948C31.4771 104.647 29.3075 104.362 27.654 105.146C26.0006 105.931 25.0585 107.692 25.0018 110.103C24.9462 112.515 25.783 115.29 27.3577 117.915C28.9336 120.541 31.0574 122.705 33.3417 124.007C35.626 125.309 37.7945 125.593 39.4479 124.809C41.1014 124.024 42.0434 122.263 42.1002 119.852ZM26.0611 110.707C26.1106 108.595 26.9352 107.052 28.3844 106.365C29.8342 105.677 31.7329 105.927 33.7342 107.068C35.7356 108.208 37.5965 110.104 38.9763 112.405C40.3561 114.706 41.0897 117.136 41.0402 119.249C40.9906 121.362 40.166 122.904 38.7169 123.591C37.267 124.279 35.3684 124.029 33.367 122.888C31.3656 121.748 29.5048 119.853 28.1249 117.551C26.7451 115.25 26.0115 112.82 26.0611 110.707Z" fill="black"/>
<path d="M31.0849 117.568C32.7751 119.681 35.9368 121.933 37.2613 119.661C38.5859 117.388 37.5723 113.733 35.498 111.443C33.5178 109.258 30.8113 108.127 29.4868 110.4C28.1622 112.673 29.2426 115.266 31.0861 117.569L31.0849 117.568Z" fill="#9E9E9E"/>
</g>
<defs>
<clipPath id="clip0_10526_4354">
<rect width="88.0772" height="48.2964" fill="white" transform="translate(41.1873 48)"/>
</clipPath>
<clipPath id="clip1_10526_4354">
<rect width="30.1626" height="40.155" fill="white" transform="translate(0.337402 0.0761719)"/>
</clipPath>
<clipPath id="clip2_10526_4354">
<rect width="23.2286" height="30.9238" fill="white" transform="translate(149.563 89.2656)"/>
</clipPath>
<clipPath id="clip3_10526_4354">
<rect width="17.2916" height="23.02" fill="white" transform="matrix(-1 0 0 1 118.5 13.8818)"/>
</clipPath>
<clipPath id="clip4_10526_4354">
<rect width="17.2916" height="23.02" fill="white" transform="matrix(-0.503507 0.863991 0.863991 0.503507 26.9502 101.979)"/>
</clipPath>
</defs>
</svg>
