<svg xmlns="http://www.w3.org/2000/svg" fill="none" viewBox="0 0 26 33"><g clip-path="url(#a)"><path fill="#fff" d="M22.645 13.74c2.377 6.158 3.24 15.583-3.175 15.583S6.596 22.701 4.32 15.518C2.146 8.661 3.088 1.57 9.503 1.57c6.416 0 10.55 5.462 13.142 12.17Z"/><path fill="#000" d="M13.893 29.407c-2.958-1.634-5.726-4.604-7.792-8.36-2.067-3.758-3.187-7.856-3.152-11.539.035-3.68 1.22-6.507 3.336-7.955 2.116-1.447 4.91-1.345 7.869.286 2.958 1.634 5.726 4.604 7.792 8.36 2.067 3.76 3.187 7.856 3.152 11.539-.035 3.682-1.22 6.507-3.336 7.955-2.116 1.447-4.91 1.345-7.869-.286Zm.243-25.86c-2.591-1.43-5.04-1.52-6.893-.25-1.855 1.27-2.891 3.743-2.923 6.97-.031 3.226.95 6.814 2.762 10.107 1.812 3.293 4.235 5.895 6.827 7.324 2.591 1.43 5.04 1.52 6.893.251 1.855-1.27 2.891-3.743 2.923-6.97.031-3.226-.95-6.814-2.762-10.107-1.812-3.293-4.235-5.894-6.827-7.324Z"/><path fill="#9E9E9E" d="M18.896 14.468c1.365 3.535 1.861 8.95-1.824 8.95-3.684 0-7.392-3.804-8.7-7.93-1.249-3.937-.708-8.01 2.977-8.01 3.684 0 6.06 3.137 7.547 6.992v-.002Z"/><path fill="#fff" d="M20.577 15.81c2.376 6.156 3.24 15.582-3.175 15.582-6.416 0-12.874-6.623-15.15-13.806C.078 10.73 1.02 3.639 7.435 3.639s10.55 5.461 13.142 12.17Z"/><path fill="#000" d="M11.823 31.475c-2.958-1.634-5.726-4.603-7.793-8.36C1.965 19.355.845 15.258.88 11.576c.035-3.681 1.22-6.508 3.336-7.955 2.115-1.448 4.91-1.346 7.868.286 2.958 1.633 5.726 4.603 7.793 8.36 2.066 3.76 3.187 7.855 3.152 11.538-.036 3.683-1.22 6.507-3.336 7.955-2.116 1.448-4.911 1.346-7.87-.286Zm.245-25.86c-2.592-1.429-5.04-1.52-6.894-.25-1.855 1.27-2.89 3.744-2.922 6.97-.031 3.226.95 6.815 2.762 10.108 1.812 3.292 4.235 5.894 6.827 7.324 2.591 1.43 5.04 1.52 6.893.25 1.855-1.269 2.891-3.743 2.922-6.97.032-3.225-.95-6.814-2.762-10.107-1.812-3.293-4.235-5.894-6.826-7.324Z"/><path fill="#9E9E9E" d="M16.828 16.534c1.365 3.536 1.86 8.95-1.824 8.95s-7.393-3.804-8.701-7.93c-1.248-3.937-.707-8.01 2.977-8.01 3.685 0 6.061 3.137 7.548 6.992v-.002Z"/></g><defs><clipPath id="a"><path fill="#fff" d="M.879.537h24.219V32.78H.878z"/></clipPath></defs></svg>
