<svg width="90" height="89" viewBox="0 0 90 89" fill="none" xmlns="http://www.w3.org/2000/svg">
<path d="M69.3549 47.9075C68.1904 58.4316 59.7799 66.8252 49.1699 68.0519C47.6819 68.2456 46.582 69.4078 46.582 70.8928V85.7429C46.582 87.4216 48.0053 88.7129 49.6874 88.6483C60.4916 87.8735 70.1959 83.2248 77.3772 76.058C84.5584 68.8913 89.2811 59.2064 89.9928 48.424C90.1222 46.7453 88.7636 45.3248 87.0815 45.3248H72.2015C70.7782 45.2603 69.549 46.4224 69.3549 47.9075Z" fill="#FFE3BE"/>
<path d="M44.0577 18.0777V3.35674C44.0577 1.54891 42.6991 -0.0652359 40.8876 0.0638953C18.1148 1.9363 0 21.306 0 44.485C0 67.7287 17.9207 86.7755 40.6935 88.6479C42.505 88.777 43.993 87.4212 43.993 85.6133V70.8924C43.993 69.3428 43.0226 67.9224 41.4699 67.6641C30.7304 65.9208 21.4142 55.784 21.4142 43.7748C21.4142 33.5735 29.6953 22.5973 41.2758 21.0477C42.8932 20.9186 44.0577 19.6273 44.0577 18.0777Z" fill="#EC4236"/>
<path d="M89.2784 3.03458V20.0799C89.2784 23.1791 85.2026 24.3412 83.5852 21.6295C79.6388 14.8501 73.9456 9.42658 66.9584 5.68177C64.1765 4.19676 65.2764 0 68.4465 0H86.2377C87.8551 0 89.2784 1.35588 89.2784 3.03458Z" fill="#EEAF02"/>
<path d="M65.4733 45.455H46.9704C45.2883 45.455 43.9297 44.0991 43.9297 42.4204V24.3421C43.9297 22.4697 45.4824 21.1138 47.3586 21.3075C58.5509 22.7279 66.9613 31.2506 68.514 41.9685C68.7728 43.8409 67.2848 45.455 65.4733 45.455Z" fill="white"/>
</svg>
