<svg width="212" height="42" viewBox="0 0 212 42" fill="none" xmlns="http://www.w3.org/2000/svg">
<path d="M32.7094 22.6417C32.1339 27.6568 28.1944 31.6068 23.1925 32.1838C22.4843 32.2725 21.9531 32.8495 21.9531 33.5596V40.6163C21.9531 41.4152 22.6171 42.0366 23.4139 41.9922C28.5043 41.6371 33.0635 39.418 36.4719 36.0006C39.8802 32.5832 42.0934 28.0119 42.4476 22.908C42.4918 22.1091 41.8721 21.4434 41.0754 21.4434H34.0816C33.3733 21.4434 32.7979 21.9759 32.7094 22.6417Z" fill="#FFE3BE"/>
<path d="M20.76 8.57247V1.56013C20.76 0.716877 20.096 -0.0819972 19.255 0.00676664C8.54303 0.894405 0 10.0371 0 21.0438C0 32.0505 8.4545 41.1044 19.2108 41.992C20.0518 42.0808 20.76 41.4151 20.76 40.5718V33.6039C20.76 32.8938 20.3174 32.1836 19.5649 32.0949C14.563 31.2072 10.1365 26.414 10.1365 20.7331C10.1365 15.8955 14.0318 10.7028 19.5206 9.99269C20.2288 9.90393 20.76 9.28258 20.76 8.57247Z" fill="#EC4236"/>
<path d="M42.0963 1.4272V9.50471C42.0963 10.9693 40.1486 11.5019 39.4404 10.2592C37.5813 7.06371 34.8812 4.48955 31.6056 2.71428C30.2777 2.00417 30.8089 0.00698116 32.3138 0.00698116H40.6798C41.4766 -0.0374007 42.0963 0.628328 42.0963 1.4272Z" fill="#EEAF02"/>
<path d="M30.8983 21.4876H22.1782C21.3814 21.4876 20.7617 20.8662 20.7617 20.0674V11.5017C20.7617 10.614 21.4699 9.9483 22.3552 10.0814C27.6227 10.7472 31.6065 14.7859 32.3147 19.8898C32.4475 20.7331 31.7393 21.4876 30.8983 21.4876Z" fill="#FAFAFA"/>
<path d="M60.9114 34.7126C58.0784 34.7126 55.7324 33.9581 53.9619 32.4492C52.147 30.9402 51.2617 28.9874 51.2617 26.5464C51.2617 24.0166 52.2355 22.0638 54.1389 20.6436C56.0865 19.2233 58.7424 18.5132 62.1065 18.5132C63.1688 18.5132 64.2755 18.602 65.3378 18.7795C66.4002 18.9571 67.5068 19.2233 68.5248 19.534V17.67C68.5248 16.161 68.0379 15.0071 67.1084 14.2082C66.1788 13.4093 64.7624 13.0543 62.9475 13.0543C61.8409 13.0543 60.6015 13.2318 59.3179 13.5868C58.0342 13.9419 56.5292 14.4745 54.8914 15.229L52.3683 10.0807C54.4488 9.14866 56.4407 8.43855 58.3883 7.95035C60.3359 7.46214 62.2393 7.24023 64.1427 7.24023C67.6838 7.24023 70.4725 8.08349 72.4644 9.81439C74.4563 11.5453 75.4301 13.9419 75.4301 17.0486V34.2688H68.5691V32.4492C67.4625 33.248 66.2674 33.825 65.028 34.18C63.8328 34.5351 62.4164 34.7126 60.9114 34.7126ZM57.9014 26.4132C57.9014 27.434 58.344 28.2329 59.2293 28.8098C60.1146 29.3868 61.2655 29.6975 62.7262 29.6975C63.8771 29.6975 64.9394 29.5643 65.9132 29.2537C66.8871 28.9874 67.7724 28.5435 68.5691 28.011V24.061C67.7281 23.7059 66.8428 23.484 65.9132 23.3065C64.9837 23.1733 64.0099 23.0846 62.9918 23.0846C61.3983 23.0846 60.1589 23.3952 59.2736 23.9722C58.344 24.5936 57.9014 25.3924 57.9014 26.4132Z" fill="#FAFAFA"/>
<path d="M80.6992 34.2692V7.72887H87.6487V9.81482C88.6668 8.97157 89.7734 8.30584 91.0128 7.86202C92.2522 7.4182 93.5802 7.19629 95.0409 7.19629C98.0951 7.19629 100.574 8.17269 102.566 10.1699C104.513 12.1227 105.532 14.6524 105.532 17.7592V34.2692H98.582V18.78C98.582 17.1378 98.0951 15.762 97.077 14.7412C96.059 13.7204 94.731 13.2322 93.0933 13.2322C91.9424 13.2322 90.88 13.4541 89.9505 13.898C89.0209 14.3418 88.2684 15.0075 87.6487 15.8508V34.2249H80.6992V34.2692Z" fill="#FAFAFA"/>
<path d="M109.602 20.9991C109.602 19.0463 109.956 17.271 110.708 15.5845C111.416 13.898 112.434 12.4334 113.718 11.1907C115.002 9.94797 116.507 8.97157 118.233 8.26146C119.959 7.55134 121.819 7.19629 123.766 7.19629C125.714 7.19629 127.573 7.55134 129.299 8.26146C131.026 8.97157 132.531 9.94797 133.814 11.1907C135.098 12.4334 136.072 13.898 136.824 15.5845C137.532 17.271 137.931 19.0906 137.931 20.9991C137.931 22.9519 137.577 24.7271 136.824 26.4137C136.116 28.1002 135.098 29.5648 133.814 30.7631C132.531 32.0058 131.026 32.9378 129.299 33.6479C127.573 34.358 125.714 34.7131 123.766 34.7131C121.819 34.7131 119.959 34.358 118.233 33.6479C116.507 32.9378 115.002 31.9614 113.718 30.7631C112.434 29.5204 111.461 28.1002 110.708 26.4137C109.956 24.7715 109.602 22.9519 109.602 20.9991ZM123.722 28.7215C125.758 28.7215 127.484 27.967 128.901 26.5024C130.317 24.9934 131.026 23.1738 131.026 21.0434C131.026 18.8687 130.317 17.0491 128.901 15.5401C127.484 14.0311 125.758 13.321 123.722 13.321C121.686 13.321 119.959 14.0755 118.543 15.5401C117.127 17.0491 116.418 18.8687 116.418 21.0434C116.418 23.1738 117.127 24.9934 118.543 26.5024C119.959 27.967 121.686 28.7215 123.722 28.7215Z" fill="#FAFAFA"/>
<path d="M142.094 34.2688V7.72844H149.043V9.72562C149.973 8.92675 151.035 8.3054 152.186 7.86158C153.337 7.41776 154.576 7.24023 155.949 7.24023C157.631 7.24023 159.18 7.59529 160.552 8.3054C161.924 9.01551 163.031 9.99191 163.916 11.2346C164.978 9.94753 166.218 8.97113 167.723 8.26102C169.228 7.59529 170.866 7.24023 172.636 7.24023C175.602 7.24023 177.992 8.21664 179.896 10.2138C181.799 12.1666 182.728 14.6964 182.728 17.8031V34.3132H175.779V18.7795C175.779 17.1374 175.336 15.7616 174.451 14.7408C173.566 13.72 172.326 13.2318 170.821 13.2318C169.759 13.2318 168.829 13.4537 167.944 13.8975C167.059 14.3413 166.351 15.0071 165.731 15.8503C165.775 16.161 165.819 16.4717 165.819 16.7823C165.864 17.093 165.864 17.4037 165.864 17.7587V34.2688H158.914V18.7795C158.914 17.1374 158.472 15.7616 157.586 14.7408C156.701 13.72 155.462 13.2318 153.957 13.2318C152.894 13.2318 151.965 13.4537 151.168 13.8531C150.371 14.2526 149.663 14.8739 149.043 15.6284V34.2688H142.094Z" fill="#FAFAFA"/>
<path d="M196.493 34.7126C193.66 34.7126 191.314 33.9581 189.544 32.4492C187.729 30.9402 186.844 28.9874 186.844 26.5464C186.844 24.0166 187.818 22.0638 189.721 20.6436C191.669 19.2233 194.324 18.5132 197.689 18.5132C198.751 18.5132 199.857 18.602 200.92 18.7795C201.982 18.9571 203.089 19.2233 204.107 19.534V17.67C204.107 16.161 203.62 15.0071 202.69 14.2082C201.761 13.4093 200.344 13.0543 198.53 13.0543C197.423 13.0543 196.184 13.2318 194.9 13.5868C193.616 13.9419 192.111 14.4745 190.473 15.229L187.95 10.0807C190.031 9.14866 192.023 8.43855 193.97 7.95035C195.918 7.46214 197.821 7.24023 199.725 7.24023C203.266 7.24023 206.055 8.08349 208.046 9.81439C210.038 11.5453 211.012 13.9419 211.012 17.0486V34.2688H204.151V32.4492C203.045 33.248 201.849 33.825 200.61 34.18C199.415 34.5351 197.998 34.7126 196.493 34.7126ZM193.483 26.4132C193.483 27.434 193.926 28.2329 194.811 28.8098C195.697 29.3868 196.848 29.6975 198.308 29.6975C199.459 29.6975 200.521 29.5643 201.495 29.2537C202.469 28.9874 203.354 28.5435 204.151 28.011V24.061C203.31 23.7059 202.425 23.484 201.495 23.3065C200.566 23.1733 199.592 23.0846 198.574 23.0846C196.98 23.0846 195.741 23.3952 194.856 23.9722C193.926 24.5936 193.483 25.3924 193.483 26.4132Z" fill="#FAFAFA"/>
</svg>
