<svg xmlns="http://www.w3.org/2000/svg" fill="none" viewBox="0 0 94 138"><g fill="#FFED00"><path d="M31.616 65.015a18.294 18.294 0 0 1 5.785 13.378 18.294 18.294 0 0 1-5.375 12.981 18.286 18.286 0 0 1-12.977 5.377c-2.2 0-4.343-.384-6.381-1.14a18.005 18.005 0 0 0 7.862 1.793c9.99 0 18.087-8.1 18.087-18.093 0-5.813-2.74-10.986-7-14.296Z"/><path d="M37.137 78.393c0-6.187-3.105-11.648-7.841-14.912a17.99 17.99 0 0 0-8.766-2.264c-9.99 0-18.088 8.1-18.088 18.094 0 6.187 3.105 11.648 7.841 14.911a17.991 17.991 0 0 0 8.766 2.264c9.99 0 18.088-8.1 18.088-18.093Zm-31.518.918c0-3.985 1.55-7.73 4.367-10.546a14.81 14.81 0 0 1 10.543-4.37c3.982 0 7.727 1.552 10.542 4.37A14.819 14.819 0 0 1 35.44 79.31c0 3.983-1.551 7.73-4.368 10.546a14.81 14.81 0 0 1-10.542 4.368 14.808 14.808 0 0 1-10.543-4.368A14.82 14.82 0 0 1 5.62 79.31Z"/><path d="M19.05 60.3C9.06 60.3.961 68.4.961 78.392S9.06 96.486 19.049 96.486c9.99 0 18.088-8.1 18.088-18.093s-8.098-18.094-18.088-18.094Zm.41 30.992c-7.04 0-12.768-5.73-12.768-12.772S12.42 65.75 19.46 65.75c7.04 0 12.767 5.729 12.767 12.771 0 7.043-5.727 12.772-12.767 12.772Z"/><path d="M19.46 67.474c-6.09 0-11.044 4.955-11.044 11.046 0 6.091 4.954 11.047 11.043 11.047 6.09 0 11.043-4.956 11.043-11.047 0-6.09-4.954-11.046-11.043-11.046Zm5.601 16.355h-5.307V78.52h-5.28l3.26 5.31h-6.53l3.26-5.31v-5.307a5.308 5.308 0 0 1 5.307 5.308h5.29v5.31-.002Zm.29-5.323a2.653 2.653 0 0 1-2.92-2.923 2.655 2.655 0 0 1 2.345-2.347 2.653 2.653 0 0 1 2.922 2.923 2.656 2.656 0 0 1-2.346 2.347ZM78.469 55.602a14.472 14.472 0 0 1 4.577 10.583c0 1.961-.384 3.863-1.142 5.653a14.47 14.47 0 0 1-3.11 4.616 14.465 14.465 0 0 1-10.266 4.254 14.44 14.44 0 0 1-5.049-.903c1.881.91 3.99 1.419 6.22 1.419 7.902 0 14.308-6.408 14.308-14.313 0-4.598-2.168-8.69-5.538-11.309Z"/><path d="M82.836 66.185c0-4.894-2.456-9.214-6.203-11.796A14.232 14.232 0 0 0 69.7 52.6c-7.902 0-14.308 6.407-14.308 14.312 0 4.894 2.456 9.214 6.202 11.796a14.232 14.232 0 0 0 6.935 1.791c7.902 0 14.308-6.408 14.308-14.313Zm-24.933.726a11.72 11.72 0 0 1 3.455-8.343 11.715 11.715 0 0 1 8.34-3.456c3.15 0 6.113 1.228 8.34 3.456a11.723 11.723 0 0 1 3.455 8.343c0 3.151-1.227 6.115-3.455 8.343a11.715 11.715 0 0 1-8.34 3.456c-3.15 0-6.112-1.228-8.34-3.456a11.722 11.722 0 0 1-3.455-8.343Z"/><path d="M68.527 51.872c-7.902 0-14.308 6.408-14.308 14.313s6.406 14.313 14.308 14.313c7.903 0 14.308-6.408 14.308-14.313S76.43 51.872 68.528 51.872Zm.325 24.517c-5.57 0-10.1-4.532-10.1-10.103 0-5.57 4.53-10.103 10.1-10.103 5.569 0 10.1 4.532 10.1 10.103 0 5.57-4.531 10.103-10.1 10.103Z"/><path d="M68.852 57.547c-4.817 0-8.736 3.92-8.736 8.739 0 4.818 3.919 8.739 8.736 8.739s8.735-3.92 8.735-8.74c0-4.817-3.918-8.738-8.735-8.738Zm4.431 12.938h-4.198v-4.2h-4.177l2.578 4.2h-5.164l2.578-4.2v-4.198a4.199 4.199 0 0 1 4.198 4.2h4.185v4.2-.002Zm.23-4.21a2.099 2.099 0 0 1-2.311-2.313 2.1 2.1 0 0 1 1.856-1.856 2.098 2.098 0 0 1 2.311 2.312 2.1 2.1 0 0 1-1.856 1.856ZM84.135 93.06a25.097 25.097 0 0 1 7.936 18.351 25.09 25.09 0 0 1-7.373 17.807 25.087 25.087 0 0 1-17.801 7.376c-3.02 0-5.96-.527-8.755-1.565a24.707 24.707 0 0 0 10.785 2.461c13.703 0 24.812-11.113 24.812-24.82 0-7.974-3.76-15.07-9.604-19.61Z"/><path d="M91.708 111.411c0-8.487-4.26-15.978-10.756-20.455a24.68 24.68 0 0 0-12.025-3.106c-13.703 0-24.812 11.112-24.812 24.82 0 8.487 4.26 15.978 10.756 20.455a24.681 24.681 0 0 0 12.025 3.106c13.703 0 24.812-11.112 24.812-24.82Zm-43.235 1.259a20.323 20.323 0 0 1 5.99-14.467c3.864-3.865 9-5.993 14.462-5.993 5.463 0 10.6 2.128 14.462 5.993a20.327 20.327 0 0 1 5.991 14.467 20.323 20.323 0 0 1-5.99 14.466 20.314 20.314 0 0 1-14.463 5.993c-5.462 0-10.6-2.128-14.461-5.993a20.327 20.327 0 0 1-5.991-14.466Z"/><path d="M66.896 86.59c-13.703 0-24.811 11.113-24.811 24.821 0 13.707 11.108 24.819 24.811 24.819s24.812-11.112 24.812-24.819c0-13.708-11.109-24.82-24.812-24.82Zm.563 42.514c-9.657 0-17.514-7.858-17.514-17.519 0-9.66 7.857-17.519 17.514-17.519s17.513 7.859 17.513 17.519c0 9.661-7.856 17.519-17.513 17.519Z"/><path d="M67.458 96.432c-8.352 0-15.148 6.798-15.148 15.153 0 8.356 6.796 15.154 15.148 15.154 8.353 0 15.149-6.798 15.149-15.154 0-8.355-6.796-15.153-15.149-15.153Zm7.685 22.436h-7.28v-7.283H60.62l4.47 7.283h-8.955l4.471-7.283v-7.28a7.28 7.28 0 0 1 7.28 7.282h7.257v7.282-.001Zm.398-7.302a3.64 3.64 0 0 1-4.007-4.01 3.641 3.641 0 0 1 3.218-3.219 3.64 3.64 0 0 1 4.008 4.009 3.644 3.644 0 0 1-3.219 3.22ZM46.432 37.684a11.647 11.647 0 0 1 3.683 8.517 11.648 11.648 0 0 1-3.422 8.264 11.642 11.642 0 0 1-8.262 3.423c-1.401 0-2.765-.245-4.063-.727a11.462 11.462 0 0 0 5.006 1.142c6.36 0 11.514-5.157 11.514-11.518a11.5 11.5 0 0 0-4.456-9.101Z"/><path d="M49.946 46.2c0-3.939-1.977-7.415-4.992-9.493a11.453 11.453 0 0 0-5.58-1.441c-6.36 0-11.515 5.157-11.515 11.518 0 3.94 1.976 7.416 4.991 9.493a11.453 11.453 0 0 0 5.581 1.442c6.36 0 11.515-5.157 11.515-11.519Zm-20.065.584c0-2.536.987-4.92 2.78-6.714a9.428 9.428 0 0 1 6.712-2.78c2.535 0 4.92.987 6.712 2.78a9.434 9.434 0 0 1 2.78 6.714c0 2.536-.987 4.921-2.78 6.714a9.428 9.428 0 0 1-6.712 2.781 9.427 9.427 0 0 1-6.712-2.78 9.434 9.434 0 0 1-2.78-6.715Z"/><path d="M38.431 34.682c-6.36 0-11.515 5.157-11.515 11.519 0 6.361 5.156 11.518 11.515 11.518 6.36 0 11.515-5.157 11.515-11.518 0-6.362-5.155-11.52-11.515-11.52Zm.261 19.73c-4.481 0-8.128-3.647-8.128-8.13 0-4.484 3.647-8.13 8.128-8.13 4.482 0 8.128 3.646 8.128 8.13 0 4.483-3.646 8.13-8.128 8.13Z"/><path d="M38.692 39.25c-3.877 0-7.03 3.154-7.03 7.032s3.154 7.032 7.03 7.032c3.877 0 7.03-3.154 7.03-7.032s-3.154-7.033-7.03-7.033Zm3.566 10.411H38.88v-3.38h-3.362l2.075 3.38h-4.156l2.075-3.38v-3.378a3.379 3.379 0 0 1 3.379 3.38h3.367v3.38-.002Zm.185-3.389a1.69 1.69 0 0 1-1.86-1.86 1.69 1.69 0 0 1 1.494-1.494 1.689 1.689 0 0 1 1.86 1.86 1.69 1.69 0 0 1-1.494 1.495ZM72.196 22.666a8.517 8.517 0 0 1 2.693 6.227 8.517 8.517 0 0 1-2.502 6.042 8.512 8.512 0 0 1-6.04 2.503 8.498 8.498 0 0 1-2.971-.53 8.42 8.42 0 0 0 12.079-7.587 8.408 8.408 0 0 0-3.259-6.655Z"/><path d="M74.766 28.893a8.414 8.414 0 0 0-3.65-6.94 8.42 8.42 0 0 0-12.5 7.368 8.414 8.414 0 0 0 3.65 6.94 8.42 8.42 0 0 0 12.5-7.368Zm-14.671.427c0-1.854.721-3.598 2.032-4.909a6.893 6.893 0 0 1 4.908-2.033c1.853 0 3.597.722 4.907 2.033a6.898 6.898 0 0 1 2.033 4.91 6.897 6.897 0 0 1-2.033 4.908 6.893 6.893 0 0 1-4.907 2.034 6.893 6.893 0 0 1-4.907-2.034 6.898 6.898 0 0 1-2.033-4.909Z"/><path d="M66.346 20.47a8.42 8.42 0 0 0-8.419 8.422 8.42 8.42 0 0 0 8.42 8.422 8.42 8.42 0 0 0 8.419-8.422 8.42 8.42 0 0 0-8.42-8.422Zm.191 14.426a5.95 5.95 0 0 1-5.943-5.944 5.95 5.95 0 0 1 5.943-5.945 5.95 5.95 0 0 1 5.943 5.945 5.95 5.95 0 0 1-5.943 5.944Z"/><path d="M66.537 23.81a5.147 5.147 0 0 0-5.14 5.143 5.147 5.147 0 0 0 5.14 5.141 5.147 5.147 0 0 0 5.14-5.142 5.147 5.147 0 0 0-5.14-5.142Zm2.608 7.614h-2.47v-2.471h-2.458l1.517 2.47h-3.039l1.517-2.47v-2.471a2.47 2.47 0 0 1 2.47 2.471h2.463v2.471Zm.135-2.478a1.235 1.235 0 0 1-1.36-1.36c.06-.572.52-1.032 1.092-1.093a1.235 1.235 0 0 1 .268 2.453ZM52.125 9.3a6.355 6.355 0 0 1 2.01 4.647 6.356 6.356 0 0 1-1.867 4.51 6.353 6.353 0 0 1-4.509 1.868 6.343 6.343 0 0 1-2.217-.396A6.284 6.284 0 0 0 52.124 9.3Z"/><path d="M54.042 13.947a6.28 6.28 0 0 0-2.724-5.18 6.284 6.284 0 0 0-6.605 10.679 6.284 6.284 0 0 0 9.328-5.499Zm-10.949.32c0-1.385.54-2.686 1.517-3.664a5.145 5.145 0 0 1 3.663-1.518c1.383 0 2.684.539 3.662 1.518a5.148 5.148 0 0 1 1.517 3.663 5.147 5.147 0 0 1-1.517 3.664 5.144 5.144 0 0 1-3.662 1.517 5.144 5.144 0 0 1-3.663-1.517 5.148 5.148 0 0 1-1.517-3.664Z"/><path d="M47.759 7.662a6.284 6.284 0 0 0-6.283 6.285 6.284 6.284 0 1 0 12.566 0 6.284 6.284 0 0 0-6.283-6.285Zm.142 10.766a4.44 4.44 0 0 1-4.435-4.436 4.44 4.44 0 0 1 4.435-4.437 4.44 4.44 0 0 1 4.435 4.437 4.44 4.44 0 0 1-4.435 4.436Z"/><path d="M47.901 10.154a3.841 3.841 0 0 0-3.836 3.838 3.841 3.841 0 0 0 3.836 3.837 3.841 3.841 0 0 0 3.837-3.837 3.841 3.841 0 0 0-3.837-3.838Zm1.946 5.682h-1.843v-1.844H46.17l1.132 1.844h-2.268l1.132-1.844v-1.844c1.018 0 1.844.825 1.844 1.844h1.837v1.844Zm.101-1.85a.922.922 0 0 1-.2-1.83.922.922 0 0 1 .2 1.83ZM67.872 1.413l.102.098a4.525 4.525 0 0 1 1.33 3.213 4.514 4.514 0 0 1-1.33 3.212 4.524 4.524 0 0 1-3.212 1.33 4.517 4.517 0 0 1-1.579-.282 4.476 4.476 0 0 0 4.689-7.57Z"/><path d="M69.238 4.724a4.473 4.473 0 0 0-1.94-3.69 4.476 4.476 0 0 0-4.705 7.607 4.476 4.476 0 0 0 6.645-3.917Zm-7.8.227c0-.986.385-1.913 1.082-2.61a3.665 3.665 0 0 1 2.608-1.08c.986 0 1.912.383 2.61 1.08a3.667 3.667 0 0 1 1.08 2.61c0 .985-.384 1.913-1.08 2.61a3.665 3.665 0 0 1-2.61 1.08 3.664 3.664 0 0 1-2.608-1.08 3.667 3.667 0 0 1-1.081-2.61Z"/><path d="M64.762.246a4.476 4.476 0 0 0-4.476 4.478A4.476 4.476 0 1 0 64.762.246Zm.102 7.67a3.163 3.163 0 0 1-3.16-3.16 3.163 3.163 0 0 1 3.16-3.161 3.163 3.163 0 0 1 3.159 3.16 3.163 3.163 0 0 1-3.16 3.16Z"/><path d="M64.864 2.022a2.736 2.736 0 0 0-2.733 2.733 2.736 2.736 0 0 0 2.733 2.734 2.736 2.736 0 0 0 2.732-2.734 2.736 2.736 0 0 0-2.733-2.733Zm1.386 4.047h-1.314V4.755H63.63l.806 1.314h-1.615l.806-1.314V3.442c.726 0 1.314.588 1.314 1.314h1.309v1.313Zm.072-1.317a.657.657 0 0 1-.143-1.304.656.656 0 0 1 .143 1.304Z"/></g></svg>