<svg width="78" height="28" viewBox="0 0 78 28" fill="none" xmlns="http://www.w3.org/2000/svg">
<path d="M78 14.1035L74.3488 11.9955V16.2115L78 14.1035ZM0.767578 14.4686H1.5102V13.7384H0.767578V14.4686ZM2.99544 14.4686H4.48068V13.7384H2.99544V14.4686ZM5.96591 14.4686H7.45115V13.7384H5.96591V14.4686ZM8.93639 14.4686H10.4216V13.7384H8.93639V14.4686ZM11.9069 14.4686H13.3921V13.7384H11.9069V14.4686ZM14.8773 14.4686H16.3626V13.7384H14.8773V14.4686ZM17.8478 14.4686H19.3331V13.7384H17.8478V14.4686ZM20.8183 14.4686H22.3035V13.7384H20.8183V14.4686ZM23.7888 14.4686H25.274V13.7384H23.7888V14.4686ZM26.7593 14.4686H28.2445V13.7384H26.7593V14.4686ZM29.7297 14.4686H31.215V13.7384H29.7297V14.4686ZM32.7002 14.4686H34.1855V13.7384H32.7002V14.4686ZM35.6707 14.4686H37.1559V13.7384H35.6707V14.4686ZM38.6412 14.4686H40.1264V13.7384H38.6412V14.4686ZM41.6116 14.4686H43.0969V13.7384H41.6116V14.4686ZM44.5821 14.4686H46.0674V13.7384H44.5821V14.4686ZM47.5526 14.4686H49.0378V13.7384H47.5526V14.4686ZM50.5231 14.4686H52.0083V13.7384H50.5231V14.4686ZM53.4935 14.4686H54.9788V13.7384H53.4935V14.4686ZM56.464 14.4686H57.9492V13.7384H56.464V14.4686ZM59.4345 14.4686H60.9197V13.7384H59.4345V14.4686ZM62.405 14.4686H63.8902V13.7384H62.405V14.4686ZM65.3754 14.4686H66.8607V13.7384H65.3754V14.4686ZM68.3459 14.4686H69.8311V13.7384H68.3459V14.4686ZM71.3164 14.4686H72.8016V13.7384H71.3164V14.4686ZM74.2869 14.4686H75.7721V13.7384H74.2869V14.4686Z" fill="white"/>
<g clip-path="url(#clip0_222_283)">
<path d="M46.5441 11.6064C48.5767 16.8731 49.3157 24.9365 43.8278 24.9365C38.3399 24.9365 32.8151 19.271 30.868 13.1262C29.008 7.26132 29.814 1.19531 35.3019 1.19531C40.7898 1.19531 44.3271 5.86714 46.5441 11.6064Z" fill="white"/>
<path d="M39.0571 25.0086C36.5268 23.611 34.1591 21.0707 32.3912 17.8567C30.6234 14.6427 29.6649 11.1372 29.695 7.98689C29.7252 4.83827 30.739 2.42025 32.5487 1.18191C34.3585 -0.056424 36.7497 0.0307119 39.28 1.42656C41.8103 2.82409 44.178 5.36444 45.9459 8.57841C47.7137 11.7941 48.6722 15.2979 48.6421 18.4482C48.6119 21.5985 47.5981 24.0149 45.7884 25.2532C43.9786 26.4916 41.5874 26.4044 39.0571 25.0086ZM39.2649 2.88777C37.048 1.66451 34.9533 1.58743 33.3681 2.67328C31.7813 3.75913 30.8948 5.87552 30.868 8.63539C30.8412 11.3953 31.6807 14.4651 33.2307 17.282C34.7807 20.0988 36.8536 22.3241 39.0705 23.5474C41.2875 24.7706 43.3821 24.8477 44.9673 23.7619C46.5542 22.676 47.4406 20.5596 47.4674 17.7997C47.4942 15.0399 46.6547 11.97 45.1047 9.15318C43.5547 6.33634 41.4818 4.11102 39.2649 2.88777Z" fill="black"/>
<path d="M43.337 12.2284C44.505 15.253 44.9289 19.8846 41.7769 19.8846C38.625 19.8846 35.4529 16.6304 34.3335 13.1014C33.2661 9.73327 33.7286 6.24951 36.8806 6.24951C40.0325 6.24951 42.0651 8.93229 43.337 12.2301V12.2284Z" fill="#9E9E9E"/>
<path d="M44.7745 13.3764C46.8072 18.6431 47.5461 26.7065 42.0582 26.7065C36.5704 26.7065 31.0456 21.041 29.0985 14.8963C27.2384 9.03133 28.0444 2.96533 33.5323 2.96533C39.0202 2.96533 42.5576 7.63716 44.7745 13.3764Z" fill="white"/>
<path d="M37.2856 26.7786C34.7553 25.3811 32.3875 22.8407 30.6197 19.6267C28.8518 16.4111 27.895 12.9072 27.9235 9.75691C27.9536 6.60829 28.9674 4.19027 30.7772 2.95193C32.5869 1.7136 34.9781 1.80073 37.5084 3.19658C40.0387 4.59411 42.4065 7.13446 44.1743 10.3484C45.9422 13.5641 46.9007 17.068 46.8705 20.2183C46.8403 23.3686 45.8266 25.7849 44.0168 27.0232C42.2071 28.2616 39.8159 28.1744 37.2856 26.7786ZM37.495 4.65779C35.2781 3.43453 33.1835 3.35745 31.5983 4.4433C30.0114 5.52914 29.1249 7.64554 29.0981 10.4054C29.0713 13.1653 29.9108 16.2351 31.4609 19.052C33.0109 21.8688 35.0837 24.0941 37.3006 25.3174C39.5176 26.5406 41.6122 26.6177 43.1974 25.5319C44.7843 24.446 45.6707 22.3296 45.6975 19.5698C45.7243 16.8099 44.8848 13.74 43.3348 10.9232C41.7848 8.10636 39.712 5.88104 37.495 4.65779Z" fill="black"/>
<path d="M41.5675 13.9979C42.7354 17.0225 43.1594 21.6541 40.0074 21.6541C36.8554 21.6541 33.6833 18.3999 32.564 14.8709C31.4966 11.5028 31.9591 8.01904 35.111 8.01904C38.263 8.01904 40.2956 10.7018 41.5675 13.9996V13.9979Z" fill="#9E9E9E"/>
</g>
<defs>
<clipPath id="clip0_222_283">
<rect width="20.7182" height="27.5819" fill="white" transform="translate(27.9238 0.3125)"/>
</clipPath>
</defs>
</svg>
