<svg width="27" height="36" viewBox="0 0 27 36" fill="none" xmlns="http://www.w3.org/2000/svg">
<g clip-path="url(#clip0_222_316)">
<path d="M22.983 34.0705L2.61612 22.7358C2.02747 22.433 1.6444 21.8393 1.61131 21.1775L1.44184 3.38481C1.37164 1.96284 2.86381 0.996139 4.13235 1.64094L24.5022 12.8843C25.0959 13.1862 25.482 13.7818 25.514 14.4467L25.6805 32.3296C25.7497 33.7546 24.2505 34.7203 22.982 34.0685L22.983 34.0705Z" fill="white" stroke="black" stroke-width="1.85774" stroke-miterlimit="10"/>
<path d="M7.7874 9.52495C8.35009 9.52495 8.80624 8.94802 8.80624 8.23635C8.80624 7.52468 8.35009 6.94775 7.7874 6.94775C7.22471 6.94775 6.76855 7.52468 6.76855 8.23635C6.76855 8.94802 7.22471 9.52495 7.7874 9.52495Z" fill="black"/>
<path d="M5.08037 7.88237C5.64306 7.88237 6.09921 7.30545 6.09921 6.59377C6.09921 5.8821 5.64306 5.30518 5.08037 5.30518C4.51768 5.30518 4.06152 5.8821 4.06152 6.59377C4.06152 7.30545 4.51768 7.88237 5.08037 7.88237Z" fill="black"/>
<path d="M17.3187 16.8935C18.5351 20.0453 18.9774 24.8708 15.6932 24.8708C12.409 24.8708 9.1038 21.4803 7.93754 17.803C6.82443 14.2932 7.30778 10.6631 10.591 10.6631C13.8741 10.6631 15.992 13.4589 17.3187 16.8935Z" fill="white"/>
<path d="M12.9841 17.9023L15.104 19.0726L15.0789 21.711L12.959 20.5407L12.9841 17.9023Z" fill="black"/>
<path d="M10.8874 14.0908C12.0576 14.7366 12.9963 16.4434 12.9822 17.9005L10.8623 16.7302L10.8874 14.0908Z" fill="black"/>
<path d="M10.8628 16.731L9.61328 18.6934L12.0621 20.0452L10.8628 16.731Z" fill="black"/>
<path d="M15.1365 16.4372C15.7212 16.7601 16.1905 17.6125 16.1834 18.3405C16.1764 19.0686 15.6971 19.3975 15.1115 19.0736C14.5268 18.7507 14.0575 17.8983 14.0645 17.1703C14.0716 16.4422 14.5509 16.1133 15.1365 16.4372Z" fill="black"/>
<path d="M12.8384 24.9139C11.3242 24.0775 9.90722 22.5573 8.84927 20.6339C7.79132 18.7105 7.21771 16.6127 7.23576 14.7274C7.25382 12.8432 7.86051 11.3961 8.94353 10.6551C10.0266 9.91399 11.4576 9.96613 12.9718 10.8015C14.486 11.6368 15.903 13.158 16.9609 15.0814C18.0189 17.0058 18.5925 19.1026 18.5744 20.9879C18.5564 22.8732 17.9497 24.3192 16.8667 25.0603C15.7836 25.8013 14.3526 25.7492 12.8384 24.9139ZM12.9638 11.6759C11.6371 10.9439 10.3836 10.8977 9.4349 11.5475C8.48525 12.1974 7.95477 13.4639 7.93873 15.1155C7.92268 16.7671 8.42509 18.6043 9.35268 20.29C10.2803 21.9757 11.5207 23.3074 12.8474 24.0394C14.1741 24.7715 15.4276 24.8176 16.3763 24.1678C17.3259 23.518 17.8564 22.2514 17.8725 20.5998C17.8885 18.9492 17.3861 17.1111 16.4585 15.4254C15.5309 13.7397 14.2905 12.408 12.9638 11.6759Z" fill="black"/>
</g>
<defs>
<clipPath id="clip0_222_316">
<rect width="25.8752" height="34.4712" fill="white" transform="translate(0.625 0.62207)"/>
</clipPath>
</defs>
</svg>
