<svg xmlns="http://www.w3.org/2000/svg" fill="none" viewBox="0 0 164.26601 160.7643">
  <mask id="a" width="428" height="136" x="1" y="26" maskUnits="userSpaceOnUse">
    <path fill="#fff" d="M215.096 161.36c117.965 0 213.595-30.221 213.595-67.5002 0-37.2794-95.63-67.5004-213.595-67.5004-117.9653 0-213.59502 30.221-213.59502 67.5004 0 37.2792 95.62972 67.5002 213.59502 67.5002z"/>
  </mask>
  <g mask="url(#a)" transform="translate(-130.198 -.5957)">
    <path fill="#0ff" d="M131.198 56.4297V168.323c0 20.722 36.321 37.525 81.133 37.525s81.133-16.803 81.133-37.525V56.4297"/>
    <path stroke="#000" stroke-miterlimit="10" stroke-width="2" d="M131.198 56.4297V168.323c0 20.722 36.321 37.525 81.133 37.525s81.133-16.803 81.133-37.525V56.4297"/>
  </g>
  <path fill="#0ff" stroke="#000" stroke-miterlimit="10" stroke-width="2" d="M82.133 92.763c44.809 0 81.133-15.6649 81.133-34.9884 0-19.3236-36.324-34.9885-81.133-34.9885C37.325 22.7861 1 38.451 1 57.7746 1 77.0981 37.325 92.763 82.133 92.763Z"/>

  <g class="yellow-button">
  <path fill="#ff0" d="M17.999 29.6074v24.7942c0 15.8003 28.71 28.6076 64.134 28.6076 35.425 0 64.135-12.8073 64.135-28.6076V29.6074"/>
  <path stroke="#000" stroke-miterlimit="10" stroke-width="2" d="M17.999 29.6074v24.7942c0 15.8003 28.71 28.6076 64.134 28.6076 35.425 0 64.135-12.8073 64.135-28.6076V29.6074"/>
  <path fill="#ff0" stroke="#000" stroke-miterlimit="10" stroke-width="2" d="M82.133 58.2151c35.421 0 64.135-12.808 64.135-28.6075C146.268 13.808 117.554 1 82.133 1c-35.42 0-64.134 12.808-64.134 28.6076 0 15.7995 28.714 28.6075 64.134 28.6075z"/>
  
  <g class="text"><path fill="#000" d="M58.861 26.6448c-1.762 0-3.159-.4862-4.192-1.4737-1.033-.9875-1.55-2.4004-1.55-4.2235v-3.4184c0-1.8383.517-3.236 1.55-4.2235 1.033-.9875 2.43-1.4737 4.192-1.4737 1.763 0 3.099.4862 4.056 1.4433.957.9572 1.443 2.2637 1.443 3.9349v.1215h-2.643v-.1975c0-.8356-.228-1.5344-.699-2.0813-.47-.547-1.184-.8204-2.141-.8204-.957 0-1.702.2886-2.233.8811-.547.5773-.821 1.3825-.821 2.3853v3.5094c0 .9875.274 1.7776.821 2.3701.546.5925 1.291.8811 2.233.8811.941 0 1.686-.2734 2.141-.8204.456-.5469.699-1.2458.699-2.0662v-.3646h2.643v.2887c0 1.6712-.486 2.9777-1.443 3.9349-.957.9571-2.309 1.4432-4.056 1.4432z"/>
  <path fill="#000" d="M66.563 26.3713V12.1055h2.689v11.8198h6.517v2.446z"/>
  <path fill="#000" d="m76.619 26.3713 3.752-14.2658h4.679l3.752 14.2658h-2.764l-.775-3.1297h-5.089l-.775 3.1297h-2.764Zm4.178-5.6213h3.828l-1.732-6.943h-.364z"/>
  <path fill="#000" d="M90.519 26.3713V12.1055h2.689v14.2658z"/>
  <path fill="#000" d="M95.881 26.3713V12.1055h4.982l2.461 12.4275h.365l2.461-12.4275h4.982v14.2658h-2.613V14.0805h-.364l-2.446 12.2756h-4.436l-2.445-12.2756h-.365v12.2756H95.85Z"/>
  <path fill="#000" d="M61.383 44.3595V30.0938h5.119l2.826 12.4275h.364V30.0938h2.643v14.2657h-5.119L64.391 31.932h-.365v12.4275z"/>
  <path fill="#000" d="m74.052 44.3595 3.752-14.2657h4.679l3.752 14.2657H83.47l-.775-3.1296h-5.088l-.775 3.1296h-2.765zm4.177-5.6212h3.828l-1.731-6.943h-.365z"/>
  <path fill="#000" d="M87.952 44.3595V30.0938h4.982l2.461 12.4275h.364l2.461-12.4275h4.983v14.2657h-2.613V32.084h-.364L97.78 44.3595h-4.436L90.898 32.084h-.364v12.2755h-2.613z"/></g>
  </g>
</svg>