<svg width="180" height="17" viewBox="0 0 180 17" fill="none" xmlns="http://www.w3.org/2000/svg">
<path d="M16.347 16.7051H11.7776V5.58262H5.02605V16.7051H0.456055V1.01367H16.347V16.7051Z" fill="#FFFF00"/>
<path d="M66.1124 1.02148H61.543V16.7039H66.1124V1.02148Z" fill="#FFFF00"/>
<path d="M76.7745 1.02148H72.2051V16.7039H76.7745V1.02148Z" fill="#FFFF00"/>
<path d="M71.443 1.02148H66.873V16.7039H71.443V1.02148Z" fill="#FFFF00"/>
<path d="M145.204 9.62748H140.634C140.633 8.55801 140.207 7.53273 139.451 6.7765C138.695 6.02027 137.67 5.59482 136.6 5.59344V1.02344C138.881 1.02607 141.068 1.93347 142.681 3.54657C144.295 5.15966 145.202 7.34673 145.205 9.62799" fill="#FFFF00"/>
<path d="M145.334 16.2812H130.101V1.02148H134.671V11.7091H145.334V16.2812Z" fill="#FFFF00"/>
<path d="M168.798 6.55859H164.229V11.171H168.798V6.55859Z" fill="#FFFF00"/>
<path d="M179.456 6.55859H174.886V11.171H179.456V6.55859Z" fill="#FFFF00"/>
<path d="M174.126 6.55859H169.556V11.171H174.126V6.55859Z" fill="#FFFF00"/>
<path d="M174.126 1.02148H169.556V5.63391H174.126V1.02148Z" fill="#FFFF00"/>
<path d="M168.798 12.0918H164.229V16.7042H168.798V12.0918Z" fill="#FFFF00"/>
<path d="M179.456 12.0918H174.886V16.7042H179.456V12.0918Z" fill="#FFFF00"/>
<path d="M168.798 1.02148H164.229V5.63391H168.798V1.02148Z" fill="#FFFF00"/>
<path d="M179.456 1.02148H174.886V5.63391H179.456V1.02148Z" fill="#FFFF00"/>
<path d="M110.973 16.4971H106.403V5.37414H99.6519V16.4966H95.0825V0.804688H110.973V16.4971Z" fill="#FFFF00"/>
<path d="M105.313 8.65584C105.313 9.10771 105.179 9.54945 104.928 9.92517C104.677 10.3009 104.32 10.5937 103.902 10.7667C103.485 10.9396 103.025 10.9848 102.582 10.8967C102.139 10.8085 101.732 10.5909 101.412 10.2714C101.093 9.95185 100.875 9.54475 100.787 9.10156C100.699 8.65836 100.744 8.19899 100.917 7.78151C101.09 7.36403 101.383 7.0072 101.759 6.75615C102.134 6.5051 102.576 6.37109 103.028 6.37109C103.634 6.37123 104.215 6.61201 104.643 7.04046C105.072 7.4689 105.312 8.04993 105.313 8.65584Z" fill="#FFFF00"/>
<path d="M38.0032 1.0332L33.4814 8.86553H42.5256L38.0032 1.0332Z" fill="#FFFF00"/>
<path d="M33.4861 8.85938L28.9644 16.6917H38.0069L33.4861 8.85938Z" fill="#FFFF00"/>
<path d="M42.532 8.85938L38.0103 16.6917H47.0543L42.532 8.85938Z" fill="#FFFF00"/>
</svg>
