<svg xmlns="http://www.w3.org/2000/svg" id="Layer_1" data-name="Layer 1" version="1.1" viewBox="0 0 495.4245 493.13437">
  <defs id="defs134">
    <style id="style132">
      .cls-1,.cls-3{stroke:#ff0;stroke-width:5px;stroke-miterlimit:10;fill:#ff0}.cls-3{stroke:#000;stroke-width:11.12px}
    </style>
  </defs>
  <g id="g162" transform="translate(-711.88999 -293.31562)">
    <path id="path136" d="m937.01 379.61-39.43 10.44 4.53-40.54c2.02-18.05 14.86-33.04 32.38-37.8l40.01-10.87-4.87 41.18c-2.13 18.04-15.07 32.94-32.63 37.59z" class="cls-3"/>
    <path id="path138" d="M1119.93 392.69c-39.98-37.14-93.54-59.86-152.42-59.86-123.73 0-224.04 100.3-224.04 224.04 0 12.42 1.03 24.59 2.97 36.45 35.59-34.14 82.08-72.41 140.71-107.55 85.97-51.52 168.3-78.48 232.77-93.09z" class="cls-3"/>
    <g id="g148">
      <path id="path140" d="M1186.88 511.17c-51.45 22.92-110.79 45.1-177.57 63.22-97.88 26.56-186.11 37.45-258.05 41.15.85 3.16 1.77 6.29 2.76 9.38 66.84 12.7 150.15 24.68 232.38 13.38 77.41-10.64 157.44-35.72 215.17-57.82 1.25-9.57-5.24-54.9-14.69-69.31z" class="cls-3"/>
      <path id="path142" d="M959.22 695.11c-78.5-6.44-152.13-32.5-200.08-55.81 1.55 3.91 3.21 7.76 4.97 11.56 36.55 28.85 92.33 64.3 167.06 85.04 53.06 14.72 122.6 17.02 165.56 15.22 37-20.7 47.52-50.2 67.77-87.48-53.85 21.41-123.95 38.14-205.29 31.47z" class="cls-3"/>
      <path id="path144" d="M931.17 735.9c-74.73-20.74-130.52-56.18-167.06-85.04 35.54 76.77 113.25 130.03 203.4 130.03 39.66 0 76.91-10.32 109.22-28.4-42.96 1.8-92.5-1.88-145.56-16.6z" class="cls-3"/>
      <path id="path146" d="M754.01 624.92c1.55 4.87 3.25 9.67 5.12 14.38 47.95 23.3 121.58 49.37 200.08 55.81 81.34 6.68 167.14-12 221-33.41 12.82-23.61 12.08-44.3 9.43-75.61-57.73 22.1-125.84 41.56-203.25 52.21-82.23 11.3-165.54-.68-232.38-13.38z" class="cls-3"/>
    </g>
    <g id="g158">
      <path id="path150" d="M908.41 340.71c-100.5 37.2-109.99 46.2-142.75 113.1-8.63 17.63-30.86 47.52-40.42 52.66 1.97 6.8 5.72 16 13.5 23.93 25.23 25.76 86.61 23.03 127.31 16.11 13.57-2.31 24.83-5.08 31.7-7.41" class="cls-3"/>
      <path id="path152" d="M729.95 504.66c15.35 7.51 34.44-.96 45.41-14.06 10.97-13.1 16.21-29.89 23.28-45.45 7.07-15.56 17.31-31.18 33.32-37.15 9.06-3.37 19.02-3.27 28.65-2.37 17.03 1.58 23.06 1.86 60.73 7.25 24.97 3.57 29.47 3.85 33.83 8.82 6 6.83 119.88 17.75 200.44 7.97" class="cls-3"/>
      <circle id="circle154" cx="727.54999" cy="502.92999" r="10.1" class="cls-3"/>
      <path id="path156" d="m943.12 443.6-40.78 1.04 13.78-38.39c6.14-17.1 22.09-28.71 40.25-29.29l41.44-1.32-9.36 25.56-4.9 13.38c-6.25 17.06-22.28 28.57-40.44 29.03z" class="cls-3"/>
    </g>
    <path id="path160" d="M1196.33 507.47c-9.61-46.35-42.99-83.75-76.4-114.79-64.47 14.61-146.8 41.57-232.77 93.09-58.63 35.14-105.12 73.4-140.71 107.55 1.23 7.54 2.84 14.95 4.81 22.22 71.95-3.7 160.17-14.58 258.05-41.15 66.79-18.12 135.57-44 187.02-66.92z" class="cls-3"/>
  </g>
  <g id="g170" transform="translate(-711.88999 -293.31562)">
    <circle id="circle164" cx="840.27002" cy="463.07001" r="35.560001" fill="#000" stroke="#000" stroke-miterlimit="10" stroke-width="5"/>
    <circle id="circle166" cx="848.90997" cy="452.95001" r="12.52" class="cls-1"/>
    <circle id="circle168" cx="827.28003" cy="476.88" r="5.0999999" class="cls-1"/>
  </g>
</svg>
