<svg width="120" height="120" viewBox="0 0 69 69" fill="none" xmlns="http://www.w3.org/2000/svg">
<circle cx="34.7788" cy="34.2266" r="33.8472" fill="white"/>
<path d="M44.2978 34.2251H35.1216V43.4013H44.2978V34.2251Z" fill="black"/>
<path d="M25.9392 25.0459C31.0041 25.0459 35.1154 29.1579 35.1154 34.2221H25.9392V25.0459Z" fill="black"/>
<path d="M25.9377 34.2251L20.6396 43.4019H31.2358L25.9377 34.2251Z" fill="black"/>
<path d="M44.3284 34.2202C46.8609 34.2202 48.9138 32.1673 48.9138 29.6348C48.9138 27.1023 46.8609 25.0493 44.3284 25.0493C41.7959 25.0493 39.7429 27.1023 39.7429 29.6348C39.7429 32.1673 41.7959 34.2202 44.3284 34.2202Z" fill="black"/>
<path d="M34.7792 58.7634C28.2243 58.7634 22.0623 56.2109 17.4274 51.576C12.7924 46.9417 10.24 40.779 10.24 34.2248C10.24 27.6705 12.7924 21.5079 17.4274 16.8729C22.0623 12.238 28.2243 9.68555 34.7792 9.68555C41.3341 9.68555 47.4961 12.238 52.131 16.8729C56.766 21.5079 59.3184 27.6699 59.3184 34.2248C59.3184 40.7796 56.766 46.9417 52.131 51.5766C47.4961 56.2115 41.3341 58.764 34.7792 58.764V58.7634ZM34.7792 12.7262C29.0371 12.7262 23.6383 14.9624 19.5776 19.0231C15.5169 23.0833 13.2807 28.482 13.2807 34.2248C13.2807 39.9675 15.5169 45.3657 19.5776 49.4264C23.6383 53.4871 29.0371 55.7233 34.7792 55.7233C40.5213 55.7233 45.9201 53.4871 49.9808 49.4264C54.0415 45.3657 56.2777 39.9669 56.2777 34.2248C56.2777 28.4826 54.0415 23.0838 49.9808 19.0231C45.9201 14.9624 40.5213 12.7262 34.7792 12.7262Z" fill="black"/>
</svg>
