<svg width="90" height="89" viewBox="0 0 90 89" fill="none" xmlns="http://www.w3.org/2000/svg">
<path d="M69.3549 47.9075C68.1904 58.4316 59.7799 66.8252 49.1699 68.0519C47.6819 68.2456 46.582 69.4078 46.582 70.8928V85.7429C46.582 87.4216 48.0053 88.7129 49.6874 88.6483C60.4916 87.8735 70.1959 83.2248 77.3772 76.058C84.5584 68.8913 89.2811 59.2064 89.9928 48.424C90.1222 46.7453 88.7636 45.3248 87.0815 45.3248H72.2015C70.7782 45.2603 69.549 46.4224 69.3549 47.9075Z" fill="#FFE3BE"/>
<path d="M44.0577 18.0782V3.35723C44.0577 1.54939 42.6991 -0.0647476 40.8876 0.0643836C18.1148 1.93679 0 21.3065 0 44.4855C0 67.7291 17.9207 86.776 40.6935 88.6484C42.505 88.7775 43.993 87.4217 43.993 85.6138V70.8929C43.993 69.3433 43.0226 67.9228 41.4699 67.6646C30.7304 65.9213 21.4142 55.7845 21.4142 43.7753C21.4142 33.5739 29.6953 22.5978 41.2758 21.0482C42.8932 20.9191 44.0577 19.6278 44.0577 18.0782Z" fill="#EC4236"/>
<path d="M89.2784 3.03458V20.0799C89.2784 23.1791 85.2026 24.3412 83.5852 21.6295C79.6388 14.8501 73.9456 9.42658 66.9584 5.68177C64.1765 4.19676 65.2764 0 68.4465 0H86.2377C87.8551 0 89.2784 1.35588 89.2784 3.03458Z" fill="#EEAF02"/>
<path d="M65.4733 45.4545H46.9704C45.2883 45.4545 43.9297 44.0987 43.9297 42.4199V24.3416C43.9297 22.4692 45.4824 21.1133 47.3586 21.307C58.5509 22.7274 66.9613 31.2501 68.514 41.968C68.7728 43.8404 67.2848 45.4545 65.4733 45.4545Z" fill="#2A517E"/>
</svg>
