<svg width="212" height="42" viewBox="0 0 212 42" fill="none" xmlns="http://www.w3.org/2000/svg">
<path d="M32.7094 22.6417C32.1339 27.6568 28.1944 31.6068 23.1925 32.1838C22.4843 32.2725 21.9531 32.8495 21.9531 33.5596V40.6163C21.9531 41.4152 22.6171 42.0366 23.4139 41.9922C28.5043 41.6371 33.0635 39.418 36.4719 36.0006C39.8802 32.5832 42.0934 28.0119 42.4476 22.908C42.4918 22.1091 41.8721 21.4434 41.0754 21.4434H34.0816C33.3733 21.4434 32.7979 21.9759 32.7094 22.6417Z" fill="#FFE3BE"/>
<path d="M20.76 8.57247V1.56013C20.76 0.716877 20.096 -0.0819972 19.255 0.00676664C8.54303 0.894405 0 10.0371 0 21.0438C0 32.0505 8.4545 41.1044 19.2108 41.992C20.0518 42.0808 20.76 41.4151 20.76 40.5718V33.6039C20.76 32.8938 20.3174 32.1836 19.5649 32.0949C14.563 31.2072 10.1365 26.414 10.1365 20.7331C10.1365 15.8955 14.0318 10.7028 19.5206 9.99269C20.2288 9.90393 20.76 9.28258 20.76 8.57247Z" fill="#EC4236"/>
<path d="M42.0963 1.4272V9.50471C42.0963 10.9693 40.1486 11.5019 39.4404 10.2592C37.5813 7.06371 34.8812 4.48955 31.6056 2.71428C30.2777 2.00417 30.8089 0.00698116 32.3138 0.00698116H40.6798C41.4766 -0.0374007 42.0963 0.628328 42.0963 1.4272Z" fill="#EEAF02"/>
<path d="M30.8983 21.4876H22.1782C21.3814 21.4876 20.7617 20.8662 20.7617 20.0674V11.5017C20.7617 10.614 21.4699 9.9483 22.3552 10.0814C27.6227 10.7472 31.6065 14.7859 32.3147 19.8898C32.4475 20.7331 31.7393 21.4876 30.8983 21.4876Z" fill="#011F43"/>
<path d="M60.9114 34.7131C58.0784 34.7131 55.7324 33.9586 53.9619 32.4496C52.147 30.9407 51.2617 28.9879 51.2617 26.5468C51.2617 24.0171 52.2355 22.0643 54.1389 20.6441C56.0865 19.2238 58.7424 18.5137 62.1065 18.5137C63.1688 18.5137 64.2755 18.6025 65.3378 18.78C66.4002 18.9575 67.5068 19.2238 68.5248 19.5345V17.6705C68.5248 16.1615 68.0379 15.0076 67.1084 14.2087C66.1788 13.4098 64.7624 13.0548 62.9475 13.0548C61.8409 13.0548 60.6015 13.2323 59.3179 13.5873C58.0342 13.9424 56.5292 14.475 54.8914 15.2295L52.3683 10.0812C54.4488 9.14914 56.4407 8.43903 58.3883 7.95083C60.3359 7.46263 62.2393 7.24072 64.1427 7.24072C67.6838 7.24072 70.4725 8.08398 72.4644 9.81487C74.4563 11.5458 75.4301 13.9424 75.4301 17.0491V34.2693H68.5691V32.4496C67.4625 33.2485 66.2674 33.8255 65.028 34.1805C63.8328 34.5356 62.4164 34.7131 60.9114 34.7131ZM57.9014 26.4137C57.9014 27.4345 58.344 28.2334 59.2293 28.8103C60.1146 29.3873 61.2655 29.698 62.7262 29.698C63.8771 29.698 64.9394 29.5648 65.9132 29.2541C66.8871 28.9879 67.7724 28.544 68.5691 28.0115V24.0615C67.7281 23.7064 66.8428 23.4845 65.9132 23.307C64.9837 23.1738 64.0099 23.0851 62.9918 23.0851C61.3983 23.0851 60.1589 23.3957 59.2736 23.9727C58.344 24.594 57.9014 25.3929 57.9014 26.4137Z" fill="#011F43"/>
<path d="M80.6992 34.2697V7.72936H87.6487V9.81531C88.6668 8.97205 89.7734 8.30632 91.0128 7.86251C92.2522 7.41869 93.5802 7.19678 95.0409 7.19678C98.0951 7.19678 100.574 8.17318 102.566 10.1704C104.513 12.1232 105.532 14.6529 105.532 17.7597V34.2697H98.582V18.7805C98.582 17.1383 98.0951 15.7625 97.077 14.7417C96.059 13.7209 94.731 13.2327 93.0933 13.2327C91.9424 13.2327 90.88 13.4546 89.9505 13.8984C89.0209 14.3423 88.2684 15.008 87.6487 15.8512V34.2254H80.6992V34.2697Z" fill="#011F43"/>
<path d="M109.602 20.9995C109.602 19.0467 109.956 17.2715 110.708 15.585C111.416 13.8984 112.434 12.4338 113.718 11.1911C115.002 9.94845 116.507 8.97205 118.233 8.26194C119.959 7.55183 121.819 7.19678 123.766 7.19678C125.714 7.19678 127.573 7.55183 129.299 8.26194C131.026 8.97205 132.531 9.94845 133.814 11.1911C135.098 12.4338 136.072 13.8984 136.824 15.585C137.532 17.2715 137.931 19.0911 137.931 20.9995C137.931 22.9523 137.577 24.7276 136.824 26.4141C136.116 28.1007 135.098 29.5653 133.814 30.7636C132.531 32.0063 131.026 32.9383 129.299 33.6484C127.573 34.3585 125.714 34.7136 123.766 34.7136C121.819 34.7136 119.959 34.3585 118.233 33.6484C116.507 32.9383 115.002 31.9619 113.718 30.7636C112.434 29.5209 111.461 28.1007 110.708 26.4141C109.956 24.772 109.602 22.9523 109.602 20.9995ZM123.722 28.722C125.758 28.722 127.484 27.9675 128.901 26.5029C130.317 24.9939 131.026 23.1743 131.026 21.0439C131.026 18.8692 130.317 17.0496 128.901 15.5406C127.484 14.0316 125.758 13.3215 123.722 13.3215C121.686 13.3215 119.959 14.076 118.543 15.5406C117.127 17.0496 116.418 18.8692 116.418 21.0439C116.418 23.1743 117.127 24.9939 118.543 26.5029C119.959 27.9675 121.686 28.722 123.722 28.722Z" fill="#011F43"/>
<path d="M142.094 34.2698V7.72941H149.043V9.7266C149.973 8.92772 151.035 8.30638 152.186 7.86256C153.337 7.41874 154.576 7.24121 155.949 7.24121C157.631 7.24121 159.18 7.59627 160.552 8.30638C161.924 9.01649 163.031 9.99289 163.916 11.2356C164.978 9.94851 166.218 8.97211 167.723 8.262C169.228 7.59627 170.866 7.24121 172.636 7.24121C175.602 7.24121 177.992 8.21761 179.896 10.2148C181.799 12.1676 182.728 14.6974 182.728 17.8041V34.3142H175.779V18.7805C175.779 17.1384 175.336 15.7625 174.451 14.7418C173.566 13.721 172.326 13.2328 170.821 13.2328C169.759 13.2328 168.829 13.4547 167.944 13.8985C167.059 14.3423 166.351 15.008 165.731 15.8513C165.775 16.162 165.819 16.4726 165.819 16.7833C165.864 17.094 165.864 17.4047 165.864 17.7597V34.2698H158.914V18.7805C158.914 17.1384 158.472 15.7625 157.586 14.7418C156.701 13.721 155.462 13.2328 153.957 13.2328C152.894 13.2328 151.965 13.4547 151.168 13.8541C150.371 14.2536 149.663 14.8749 149.043 15.6294V34.2698H142.094Z" fill="#011F43"/>
<path d="M196.493 34.7136C193.66 34.7136 191.314 33.9591 189.544 32.4501C187.729 30.9411 186.844 28.9883 186.844 26.5473C186.844 24.0176 187.818 22.0648 189.721 20.6445C191.669 19.2243 194.324 18.5142 197.689 18.5142C198.751 18.5142 199.857 18.603 200.92 18.7805C201.982 18.958 203.089 19.2243 204.107 19.535V17.671C204.107 16.162 203.62 15.008 202.69 14.2092C201.761 13.4103 200.344 13.0552 198.53 13.0552C197.423 13.0552 196.184 13.2328 194.9 13.5878C193.616 13.9429 192.111 14.4755 190.473 15.23L187.95 10.0817C190.031 9.14963 192.023 8.43952 193.97 7.95132C195.918 7.46312 197.821 7.24121 199.725 7.24121C203.266 7.24121 206.055 8.08447 208.046 9.81536C210.038 11.5463 211.012 13.9429 211.012 17.0496V34.2698H204.151V32.4501C203.045 33.249 201.849 33.826 200.61 34.181C199.415 34.5361 197.998 34.7136 196.493 34.7136ZM193.483 26.4142C193.483 27.435 193.926 28.2338 194.811 28.8108C195.697 29.3878 196.848 29.6985 198.308 29.6985C199.459 29.6985 200.521 29.5653 201.495 29.2546C202.469 28.9883 203.354 28.5445 204.151 28.0119V24.062C203.31 23.7069 202.425 23.485 201.495 23.3075C200.566 23.1743 199.592 23.0855 198.574 23.0855C196.98 23.0855 195.741 23.3962 194.856 23.9732C193.926 24.5945 193.483 25.3934 193.483 26.4142Z" fill="#011F43"/>
</svg>
