<?xml version="1.0" encoding="UTF-8"?><svg id="a" xmlns="http://www.w3.org/2000/svg" viewBox="0 0 511.89 491.8"><path d="M255.95,27.5c117.6,0,218.4,100.8,218.4,218.4s-100.8,218.4-218.4,218.4S37.55,369.1,37.55,245.9,138.35,27.5,255.95,27.5h0Zm0,50.4c-95.2,0-173.6,72.8-173.6,168s78.4,168,173.6,168,173.6-72.8,173.6-168S351.15,77.9,255.95,77.9h0Z"/><path d="M317.34,208.71c0-33.91-27.49-61.4-61.4-61.4s-61.4,27.49-61.4,61.4c0,23.41,13.1,43.75,32.37,54.11v89.04h58.05v-89.04c19.27-10.36,32.37-30.7,32.37-54.11Z"/></svg>